<svg width="722" height="116" viewBox="0 0 722 116" fill="none" xmlns="http://www.w3.org/2000/svg">
<path d="M19.375 79.9375C15.9062 79.9375 12.7812 79.0781 10 77.3594C7.1875 75.6406 4.92188 73.3281 3.20312 70.4219C1.51562 67.5156 0.671875 64.2656 0.671875 60.6719V30.25C0.671875 26.75 1.53125 23.5625 3.25 20.6875C4.9375 17.7812 7.20312 15.4688 10.0469 13.75C12.8906 12 16 11.125 19.375 11.125C22.9062 11.125 26.0938 11.9688 28.9375 13.6562C31.7812 15.375 34.0312 17.6719 35.6875 20.5469C37.375 23.4219 38.2188 26.6562 38.2188 30.25V34.6562C38.2188 34.9062 38.0625 35.0312 37.75 35.0312H26.9688C26.7188 35.0312 26.5938 34.9062 26.5938 34.6562V31C26.5938 28.5625 25.9062 26.5469 24.5312 24.9531C23.1562 23.3594 21.4375 22.5625 19.375 22.5625C17.5312 22.5625 15.8906 23.3281 14.4531 24.8594C13.0156 26.3906 12.2969 28.1875 12.2969 30.25V60.6719C12.2969 62.7656 13 64.5781 14.4062 66.1094C15.8125 67.6094 17.4688 68.3594 19.375 68.3594C21.4375 68.3594 23.1562 67.625 24.5312 66.1562C25.9062 64.6562 26.5938 62.8281 26.5938 60.6719V55.9375H19.8906C19.5469 55.9375 19.375 55.7812 19.375 55.4688V44.7344C19.375 44.4219 19.5469 44.2656 19.8906 44.2656H37.8438C38.0938 44.2656 38.2188 44.4219 38.2188 44.7344V60.6719C38.2188 64.2656 37.375 67.5156 35.6875 70.4219C33.9688 73.3281 31.7031 75.6406 28.8906 77.3594C26.0781 79.0781 22.9062 79.9375 19.375 79.9375ZM61.0656 79H50.1906C49.9406 79 49.8156 78.8438 49.8156 78.5312L50.0031 12.5781C50.0031 12.3281 50.1281 12.2031 50.3781 12.2031H69.7844C73.2531 12.2031 76.4406 13.0469 79.3469 14.7344C82.2531 16.4219 84.5656 18.6875 86.2844 21.5312C88.0344 24.375 88.9094 27.5938 88.9094 31.1875C88.9094 33.5312 88.55 35.6562 87.8312 37.5625C87.1125 39.4688 86.2687 41.0781 85.3 42.3906C84.3625 43.7031 83.5031 44.6719 82.7219 45.2969C86.1906 49.1406 87.925 53.6562 87.925 58.8438L88.0187 78.5312C88.0187 78.8438 87.8625 79 87.55 79H76.675C76.425 79 76.3 78.9062 76.3 78.7188V58.8438C76.3 56.5312 75.4875 54.5312 73.8625 52.8438C72.2375 51.1562 70.2375 50.3125 67.8625 50.3125H61.5344L61.4406 78.5312C61.4406 78.8438 61.3156 79 61.0656 79ZM69.7844 23.6875H61.5344V38.7812H69.7844C71.7531 38.7812 73.5031 38.0469 75.0344 36.5781C76.5969 35.1094 77.3781 33.3125 77.3781 31.1875C77.3781 29.1562 76.6281 27.4062 75.1281 25.9375C73.6281 24.4375 71.8469 23.6875 69.7844 23.6875ZM97.6937 78.5312L109.6 12.5781C109.662 12.3281 109.819 12.2031 110.069 12.2031H123.991C124.241 12.2031 124.397 12.3281 124.459 12.5781L135.897 78.5312C135.928 78.8438 135.803 79 135.522 79H124.881C124.569 79 124.397 78.8438 124.366 78.5312L123.334 71.5H110.256L109.225 78.5312C109.194 78.8438 109.037 79 108.756 79H98.0687C97.8187 79 97.6937 78.8438 97.6937 78.5312ZM116.491 34.2812L112.178 61.2344H121.412L117.475 34.2812L116.912 30.7188L116.491 34.2812ZM157.947 79H147.166C146.853 79 146.697 78.8438 146.697 78.5312L146.884 12.5781C146.884 12.3281 147.009 12.2031 147.259 12.2031H165.728C171.603 12.2031 176.244 14 179.65 17.5938C183.087 21.1562 184.806 26.0156 184.806 32.1719C184.806 36.6719 183.916 40.5938 182.134 43.9375C180.322 47.25 177.978 49.8125 175.103 51.625C172.228 53.4375 169.103 54.3438 165.728 54.3438H158.416V78.5312C158.416 78.8438 158.259 79 157.947 79ZM165.728 23.5938L158.416 23.6875V42.7188H165.728C167.759 42.7188 169.525 41.75 171.025 39.8125C172.525 37.8438 173.275 35.2969 173.275 32.1719C173.275 29.6719 172.603 27.625 171.259 26.0312C169.916 24.4062 168.072 23.5938 165.728 23.5938ZM206.622 79H195.747C195.497 79 195.372 78.8438 195.372 78.5312L195.466 12.5781C195.466 12.3281 195.622 12.2031 195.934 12.2031H206.622C206.934 12.2031 207.091 12.3281 207.091 12.5781L206.997 38.6875H221.387V12.5781C221.387 12.3281 221.512 12.2031 221.762 12.2031H232.45C232.762 12.2031 232.919 12.3281 232.919 12.5781L233.106 78.5312C233.106 78.8438 232.95 79 232.637 79H221.856C221.544 79 221.387 78.8438 221.387 78.5312V50.3125H206.997V78.5312C206.997 78.8438 206.872 79 206.622 79ZM257.078 79H246.203C245.891 79 245.734 78.8438 245.734 78.5312L245.828 12.5781C245.828 12.3281 245.953 12.2031 246.203 12.2031H256.984C257.234 12.2031 257.359 12.3281 257.359 12.5781L257.453 78.5312C257.453 78.8438 257.328 79 257.078 79ZM288.362 79.9375C284.894 79.9375 281.722 79.0625 278.847 77.3125C276.003 75.5625 273.737 73.2188 272.05 70.2812C270.394 67.3125 269.566 64.0156 269.566 60.3906L269.659 30.4375C269.659 26.875 270.472 23.6562 272.097 20.7812C273.722 17.875 275.956 15.5469 278.8 13.7969C281.675 12.0156 284.862 11.125 288.362 11.125C291.925 11.125 295.097 11.9844 297.878 13.7031C300.691 15.4219 302.925 17.75 304.581 20.6875C306.269 23.5938 307.112 26.8438 307.112 30.4375V34.8438C307.112 35.0938 306.987 35.2188 306.737 35.2188H295.956C295.706 35.2188 295.581 35.0938 295.581 34.8438V30.4375C295.581 28.3125 294.894 26.4844 293.519 24.9531C292.144 23.4219 290.425 22.6562 288.362 22.6562C286.081 22.6562 284.331 23.4375 283.112 25C281.894 26.5625 281.284 28.375 281.284 30.4375V60.3906C281.284 62.7344 281.972 64.6562 283.347 66.1562C284.722 67.625 286.394 68.3594 288.362 68.3594C290.425 68.3594 292.144 67.5469 293.519 65.9219C294.894 64.2656 295.581 62.4219 295.581 60.3906V55.9375C295.581 55.6875 295.706 55.5625 295.956 55.5625H306.831C307.081 55.5625 307.206 55.6875 307.206 55.9375V60.3906C307.206 63.9844 306.362 67.2656 304.675 70.2344C302.956 73.1719 300.691 75.5312 297.878 77.3125C295.066 79.0625 291.894 79.9375 288.362 79.9375ZM366.4 78.9062L349.197 79C348.884 79 348.728 78.8438 348.728 78.5312L348.916 12.5781C348.916 12.3281 349.041 12.2031 349.291 12.2031L367.244 12.1094C370.806 12.0156 374.025 12.8281 376.9 14.5469C379.806 16.2656 382.119 18.5938 383.837 21.5312C385.587 24.4375 386.462 27.6562 386.462 31.1875V58.75C386.462 62.4375 385.572 65.8125 383.791 68.875C381.978 71.9062 379.572 74.3281 376.572 76.1406C373.572 77.9219 370.181 78.8438 366.4 78.9062ZM367.244 23.5938L360.541 23.6875L360.447 67.1875H366.4C368.775 67.1875 370.775 66.3594 372.4 64.7031C374.025 63.0469 374.837 61.0625 374.837 58.75V31.0938C374.837 29.0625 374.087 27.2969 372.587 25.7969C371.087 24.2656 369.306 23.5312 367.244 23.5938ZM430.216 79H399.184C398.934 79 398.809 78.8438 398.809 78.5312L398.903 12.5781C398.903 12.3281 399.028 12.2031 399.278 12.2031H430.122C430.372 12.2031 430.497 12.3594 430.497 12.6719V23.4062C430.497 23.6562 430.372 23.7812 430.122 23.7812H410.434V38.7812H430.122C430.372 38.7812 430.497 38.9062 430.497 39.1562L430.591 50.0312C430.591 50.2812 430.466 50.4062 430.216 50.4062H410.434V67.1875H430.216C430.466 67.1875 430.591 67.3438 430.591 67.6562V78.625C430.591 78.875 430.466 79 430.216 79ZM460.234 79.9375C456.828 79.9375 453.688 79.0625 450.812 77.3125C447.969 75.5625 445.688 73.2344 443.969 70.3281C442.281 67.3906 441.438 64.1719 441.438 60.6719V56.2656C441.438 55.9219 441.594 55.75 441.906 55.75H452.688C452.938 55.75 453.062 55.9219 453.062 56.2656V60.6719C453.062 62.7656 453.766 64.5781 455.172 66.1094C456.578 67.6094 458.266 68.3594 460.234 68.3594C462.234 68.3594 463.938 67.5938 465.344 66.0625C466.75 64.5 467.453 62.7031 467.453 60.6719C467.453 58.3281 465.922 56.2812 462.859 54.5312C462.359 54.2188 461.703 53.8438 460.891 53.4062C460.109 52.9375 459.172 52.4062 458.078 51.8125C456.984 51.2188 455.922 50.6406 454.891 50.0781C453.859 49.4844 452.859 48.9219 451.891 48.3906C448.391 46.3281 445.781 43.75 444.062 40.6562C442.375 37.5312 441.531 34.0312 441.531 30.1562C441.531 26.5938 442.406 23.375 444.156 20.5C445.906 17.6562 448.188 15.4062 451 13.75C453.844 12.0625 456.922 11.2188 460.234 11.2188C463.641 11.2188 466.766 12.0625 469.609 13.75C472.453 15.4688 474.719 17.75 476.406 20.5938C478.125 23.4375 478.984 26.625 478.984 30.1562V38.0312C478.984 38.2812 478.859 38.4062 478.609 38.4062H467.828C467.578 38.4062 467.453 38.2812 467.453 38.0312L467.359 30.1562C467.359 27.9062 466.656 26.0781 465.25 24.6719C463.844 23.2656 462.172 22.5625 460.234 22.5625C458.266 22.5625 456.578 23.3125 455.172 24.8125C453.766 26.3125 453.062 28.0938 453.062 30.1562C453.062 32.25 453.5 34 454.375 35.4062C455.281 36.8125 456.922 38.1562 459.297 39.4375C459.547 39.5625 460.125 39.875 461.031 40.375C461.938 40.875 462.938 41.4375 464.031 42.0625C465.156 42.6562 466.172 43.2031 467.078 43.7031C467.984 44.1719 468.531 44.4531 468.719 44.5469C471.906 46.3281 474.422 48.5156 476.266 51.1094C478.141 53.7031 479.078 56.8906 479.078 60.6719C479.078 64.3281 478.234 67.6094 476.547 70.5156C474.828 73.4219 472.547 75.7188 469.703 77.4062C466.859 79.0938 463.703 79.9375 460.234 79.9375ZM501.878 79H491.003C490.691 79 490.534 78.8438 490.534 78.5312L490.628 12.5781C490.628 12.3281 490.753 12.2031 491.003 12.2031H501.784C502.034 12.2031 502.159 12.3281 502.159 12.5781L502.253 78.5312C502.253 78.8438 502.128 79 501.878 79ZM598.15 79H588.541C588.041 79 587.791 78.7812 587.791 78.3438L587.697 12.9531C587.697 12.4531 587.947 12.2031 588.447 12.2031H597.119L613.338 50.0312L612.869 12.9531C612.869 12.4531 613.15 12.2031 613.713 12.2031H623.228C623.603 12.2031 623.791 12.4531 623.791 12.9531L623.884 78.4375C623.884 78.8125 623.728 79 623.416 79H614.978L598.338 43.6562L599.041 78.25C599.041 78.75 598.744 79 598.15 79ZM668.434 79H637.403C637.153 79 637.028 78.8438 637.028 78.5312L637.122 12.5781C637.122 12.3281 637.247 12.2031 637.497 12.2031H668.341C668.591 12.2031 668.716 12.3594 668.716 12.6719V23.4062C668.716 23.6562 668.591 23.7812 668.341 23.7812H648.653V38.7812H668.341C668.591 38.7812 668.716 38.9062 668.716 39.1562L668.809 50.0312C668.809 50.2812 668.684 50.4062 668.434 50.4062H648.653V67.1875H668.434C668.684 67.1875 668.809 67.3438 668.809 67.6562V78.625C668.809 78.875 668.684 79 668.434 79ZM693.391 79H682.516C682.266 79 682.141 78.8438 682.141 78.5312L682.328 12.5781C682.328 12.3281 682.453 12.2031 682.703 12.2031H702.109C705.578 12.2031 708.766 13.0469 711.672 14.7344C714.578 16.4219 716.891 18.6875 718.609 21.5312C720.359 24.375 721.234 27.5938 721.234 31.1875C721.234 33.5312 720.875 35.6562 720.156 37.5625C719.438 39.4688 718.594 41.0781 717.625 42.3906C716.688 43.7031 715.828 44.6719 715.047 45.2969C718.516 49.1406 720.25 53.6562 720.25 58.8438L720.344 78.5312C720.344 78.8438 720.188 79 719.875 79H709C708.75 79 708.625 78.9062 708.625 78.7188V58.8438C708.625 56.5312 707.812 54.5312 706.188 52.8438C704.562 51.1562 702.562 50.3125 700.188 50.3125H693.859L693.766 78.5312C693.766 78.8438 693.641 79 693.391 79ZM702.109 23.6875H693.859V38.7812H702.109C704.078 38.7812 705.828 38.0469 707.359 36.5781C708.922 35.1094 709.703 33.3125 709.703 31.1875C709.703 29.1562 708.953 27.4062 707.453 25.9375C705.953 24.4375 704.172 23.6875 702.109 23.6875Z" fill="black"/>
<path d="M519.566 115.096C515.79 115.096 512.814 114.392 510.638 112.984C508.398 111.576 507.278 109.784 507.278 107.608C507.278 105.56 508.046 103.64 509.582 101.848C511.118 100.056 513.102 98.424 515.534 96.952C518.03 95.544 520.718 94.264 523.598 93.112C526.542 92.024 529.39 91.096 532.142 90.328C534.958 89.624 537.422 89.144 539.534 88.888C541.518 88.568 543.694 88.312 546.062 88.12C548.494 87.928 550.926 87.736 553.358 87.544C555.854 87.416 558.094 87.352 560.078 87.352C562.446 83.32 564.366 79.512 565.838 75.928C567.374 72.344 568.718 68.216 569.87 63.544L570.254 62.008C569.038 63.16 567.31 64.568 565.07 66.232C562.894 67.832 560.334 69.464 557.39 71.128C554.51 72.728 551.406 74.072 548.078 75.16C544.814 76.248 541.454 76.792 537.998 76.792C533.454 76.792 529.518 75.704 526.19 73.528C522.926 71.352 520.398 68.344 518.606 64.504C516.878 60.6 516.014 56.12 516.014 51.064C516.014 48.056 516.398 44.856 517.166 41.464C517.934 38.008 519.182 34.488 520.91 30.904C518.926 28.856 517.358 26.584 516.206 24.088C515.118 21.592 514.574 19.032 514.574 16.408C514.574 14.104 515.054 11.832 516.014 9.592C516.974 7.28799 518.478 5.07999 520.526 2.96799C521.102 2.328 521.646 2.008 522.158 2.008C522.414 2.008 522.542 2.136 522.542 2.392C522.542 2.776 522.318 3.224 521.87 3.736C520.398 5.528 519.31 7.416 518.606 9.4C517.902 11.384 517.55 13.368 517.55 15.352C517.55 17.592 517.966 19.8 518.798 21.976C519.694 24.152 520.942 26.168 522.542 28.024C524.206 24.504 526.478 21.08 529.358 17.752C532.302 14.424 535.726 11.448 539.63 8.824C543.534 6.136 547.79 4.02399 552.398 2.488C557.006 0.887997 561.806 0.0879974 566.798 0.0879974C573.454 0.0879974 578.702 1.528 582.542 4.408C586.446 7.288 588.398 11.64 588.398 17.464C588.398 20.216 587.63 22.968 586.094 25.72C584.622 28.472 582.35 31 579.278 33.304C576.27 35.608 572.494 37.464 567.95 38.872C563.47 40.28 558.254 41.048 552.302 41.176C547.63 41.24 543.022 40.664 538.478 39.448C533.934 38.168 530.094 36.504 526.958 34.456C525.358 37.848 524.174 41.176 523.406 44.44C522.702 47.64 522.35 50.648 522.35 53.464C522.35 59.928 523.918 64.856 527.054 68.248C530.254 71.64 534.51 73.336 539.822 73.336C542.702 73.336 545.582 72.92 548.462 72.088C551.406 71.192 554.126 70.04 556.622 68.632C559.118 67.224 561.23 65.752 562.958 64.216C564.75 62.616 565.934 61.144 566.51 59.8C567.982 56.472 569.422 54.168 570.83 52.888C572.302 51.544 573.614 50.872 574.766 50.872C575.726 50.872 576.526 51.32 577.166 52.216C577.87 53.048 578.126 54.2 577.934 55.672C577.294 60.984 575.822 66.136 573.518 71.128C571.278 76.12 568.366 81.528 564.782 87.352C569.134 87.416 573.038 87.64 576.494 88.024C580.014 88.472 583.182 89.048 585.998 89.752C586.766 89.944 587.278 90.168 587.534 90.424C587.854 90.744 588.014 91 588.014 91.192C588.014 91.64 587.63 91.864 586.862 91.864C586.478 91.864 585.934 91.768 585.23 91.576C583.758 91.192 581.806 90.84 579.374 90.52C576.942 90.264 574.318 90.072 571.502 89.944C568.75 89.816 566.094 89.752 563.534 89.752C560.846 93.592 557.646 97.048 553.934 100.12C550.286 103.256 546.382 105.944 542.222 108.184C538.126 110.424 534.094 112.12 530.126 113.272C526.222 114.488 522.702 115.096 519.566 115.096ZM549.71 38.296C554.062 38.296 558.286 37.72 562.382 36.568C566.478 35.416 570.158 33.816 573.422 31.768C576.686 29.72 579.278 27.352 581.198 24.664C583.182 21.912 584.174 19 584.174 15.928C584.174 13.112 583.374 10.712 581.774 8.72799C580.238 6.67999 578.254 5.112 575.822 4.024C573.39 2.936 570.798 2.392 568.046 2.392C563.694 2.392 559.534 3.224 555.566 4.888C551.598 6.552 547.918 8.792 544.526 11.608C541.134 14.36 538.03 17.496 535.214 21.016C532.462 24.536 530.126 28.152 528.206 31.864C530.83 33.848 533.998 35.416 537.71 36.568C541.486 37.72 545.486 38.296 549.71 38.296ZM519.374 112.6C521.87 112.6 524.814 112.088 528.206 111.064C531.598 110.104 535.15 108.664 538.862 106.744C542.574 104.824 546.126 102.456 549.518 99.64C552.974 96.824 555.982 93.592 558.542 89.944C555.47 90.008 552.43 90.136 549.422 90.328C546.478 90.584 543.534 90.968 540.59 91.48C538.99 91.736 537.006 92.216 534.638 92.92C532.334 93.624 529.934 94.52 527.438 95.608C524.942 96.696 522.574 97.912 520.334 99.256C518.158 100.6 516.366 102.04 514.958 103.576C513.614 105.112 512.942 106.68 512.942 108.28C512.942 109.432 513.422 110.424 514.382 111.256C515.406 112.152 517.07 112.6 519.374 112.6Z" fill="#FF3D00"/>
</svg>
