<svg width="145" height="190" viewBox="0 0 145 190" fill="none" xmlns="http://www.w3.org/2000/svg">
<g clip-path="url(#clip0_1969_32)">
<path d="M0 25.1543H145" stroke="#FEFEFE"/>
<path d="M0 121.27H145" stroke="#FEFEFE"/>
<path d="M24.4307 145.725V0.723633" stroke="#FEFEFE"/>
<path d="M120.545 145.725V0.723633" stroke="#FEFEFE"/>
<path fill-rule="evenodd" clip-rule="evenodd" d="M72.4879 25.1055L96.5288 73.2119L120.545 121.343H105.492L96.5288 103.391L94.7994 99.9079H50.2009L48.4715 103.391L39.5079 121.343H24.4307L48.4715 73.2119L72.4879 25.1055ZM87.2729 84.8548L72.4879 55.2846L57.7273 84.8548H87.2729Z" fill="#FC4700"/>
<path d="M2.6067 183.552H0.828607V187.644H0.195312V182.968H2.6067V183.552Z" fill="#FEFEFE"/>
<path d="M8.33036 185.33C8.33036 186.012 8.08679 186.597 7.624 187.06C7.13685 187.522 6.55227 187.742 5.82155 187.742C5.3344 187.742 4.92032 187.62 4.57931 187.352C4.38445 187.206 4.21395 187.011 4.06781 186.767L4.04345 189.276H3.41016V182.968H3.99474V183.771C4.26267 183.43 4.60367 183.162 4.99339 183.016C5.26132 182.919 5.52926 182.87 5.8459 182.87C6.60098 182.87 7.23428 183.138 7.69707 183.65C8.11115 184.112 8.33036 184.673 8.33036 185.33ZM7.69707 185.33C7.69707 184.794 7.52657 184.332 7.16121 183.991C6.79584 183.625 6.35741 183.43 5.8459 183.43C5.31004 183.43 4.8716 183.625 4.5306 183.991C4.1896 184.356 3.99474 184.794 3.99474 185.33C3.99474 185.866 4.16524 186.28 4.5306 186.646C4.8716 187.011 5.31004 187.181 5.82155 187.181C6.35741 187.181 6.79584 187.011 7.16121 186.646C7.50221 186.28 7.69707 185.842 7.69707 185.33Z" fill="#FEFEFE"/>
<path d="M14.1272 187.644H13.5182V186.767C13.2747 187.133 12.9824 187.376 12.6414 187.547C12.3491 187.669 12.0324 187.742 11.6914 187.742C10.9851 187.742 10.4005 187.522 9.91334 187.06C9.42619 186.597 9.18262 185.988 9.18262 185.282C9.18262 184.648 9.40183 184.112 9.81591 183.65C10.2787 183.138 10.8876 182.87 11.6671 182.87C12.1055 182.87 12.4709 182.943 12.7632 183.114C13.0555 183.26 13.299 183.479 13.4939 183.796L13.5182 182.968H14.1272V187.644ZM13.5182 185.33C13.5182 184.819 13.3477 184.356 12.9824 183.991C12.6414 183.625 12.2029 183.43 11.6671 183.43C11.1556 183.43 10.7171 183.625 10.3761 183.991C10.0108 184.332 9.81591 184.794 9.81591 185.33C9.81591 185.842 10.0108 186.28 10.3761 186.646C10.7415 187.011 11.1799 187.181 11.6914 187.181C12.2029 187.181 12.617 186.987 12.9824 186.646C13.3477 186.28 13.5182 185.842 13.5182 185.33Z" fill="#FEFEFE"/>
<path d="M20.7527 185.331C20.7527 185.915 20.5578 186.427 20.1437 186.914C19.6809 187.474 19.0476 187.742 18.2682 187.742V189.277H17.6349V187.742C16.8798 187.742 16.2465 187.474 15.7837 186.914C15.3697 186.427 15.1748 185.915 15.1748 185.331C15.1748 184.649 15.394 184.088 15.8325 183.626C16.3196 183.114 16.9042 182.87 17.6349 182.87V181.336H18.2682V182.87C18.9989 182.87 19.6079 183.114 20.0707 183.626C20.5334 184.088 20.7527 184.649 20.7527 185.331ZM20.1194 185.331C20.1194 184.795 19.9489 184.332 19.6079 183.967C19.2669 183.626 18.8041 183.431 18.2682 183.431V187.182C18.8528 187.182 19.3156 186.987 19.6566 186.597C19.9732 186.232 20.1194 185.818 20.1194 185.331ZM17.6349 187.182V183.431C17.099 183.431 16.6606 183.626 16.3196 183.967C15.9786 184.332 15.8081 184.77 15.8081 185.331C15.8081 185.818 15.9542 186.232 16.2709 186.597C16.6119 186.987 17.0747 187.182 17.6349 187.182Z" fill="#FEFEFE"/>
<path d="M25.8431 187.644H25.2099V183.869L22.4331 187.644H21.7998V182.968H22.4331V186.743L25.2099 182.968H25.8431V187.644Z" fill="#FEFEFE"/>
<path d="M30.4226 187.644H29.7893V185.891H28.5958C28.2792 185.891 28.06 185.866 27.8895 185.818C27.6459 185.769 27.451 185.647 27.2805 185.477C27.1587 185.306 27.0857 185.16 27.0369 184.965C26.9882 184.77 26.9639 184.551 26.9639 184.307V182.968H27.5972V184.307C27.5972 184.502 27.6215 184.673 27.6459 184.795C27.6702 184.916 27.7433 185.014 27.8407 185.111C27.9138 185.184 28.0112 185.233 28.1087 185.257C28.2061 185.306 28.3766 185.306 28.5958 185.306H29.7893V182.968H30.4226V187.644Z" fill="#FEFEFE"/>
<path d="M36.2925 185.525H32.1274C32.1274 185.988 32.2979 186.378 32.6389 186.694C33.0042 187.011 33.4183 187.181 33.9055 187.181C34.2465 187.181 34.5875 187.084 34.8798 186.889C35.1721 186.694 35.3669 186.451 35.5374 186.11H36.1707C36.0002 186.621 35.7079 187.035 35.2938 187.303C34.9041 187.596 34.417 187.742 33.9055 187.742C33.1991 187.742 32.6389 187.522 32.1761 187.06C31.7133 186.597 31.4697 186.012 31.4697 185.306C31.4697 184.673 31.6889 184.137 32.0787 183.65C32.5415 183.138 33.1504 182.87 33.9055 182.87C34.7093 182.87 35.3182 183.162 35.7566 183.747C36.122 184.234 36.2925 184.819 36.2925 185.525ZM35.6105 184.965C35.5374 184.502 35.3182 184.137 35.0016 183.844C34.6849 183.576 34.3196 183.43 33.9055 183.43C33.4427 183.43 33.053 183.576 32.7363 183.869C32.4197 184.137 32.2005 184.502 32.1274 184.965H35.6105Z" fill="#FEFEFE"/>
<path d="M41.9196 184.38H41.2133C41.0671 184.088 40.8479 183.869 40.58 183.698C40.2877 183.528 39.9954 183.43 39.6544 183.43C39.1185 183.43 38.6557 183.625 38.3147 183.966C37.9737 184.332 37.8032 184.77 37.8032 185.306C37.8032 185.817 37.9737 186.28 38.3391 186.621C38.7044 186.987 39.1429 187.181 39.6544 187.181C39.971 187.181 40.2633 187.108 40.5556 186.938C40.8235 186.792 41.0428 186.572 41.2133 186.28H41.9196C41.7248 186.694 41.4568 187.011 41.1402 187.279C40.7261 187.596 40.239 187.742 39.6544 187.742C38.8993 187.742 38.2904 187.498 37.8032 186.987C37.3891 186.524 37.1699 185.964 37.1699 185.306C37.1699 184.673 37.3648 184.137 37.8032 183.674C38.266 183.138 38.8993 182.87 39.6544 182.87C40.1902 182.87 40.653 183.016 41.0428 183.284C41.4325 183.552 41.7491 183.917 41.9196 184.38Z" fill="#FEFEFE"/>
<path d="M46.6936 187.644H45.8898L44.0143 185.282L45.8167 182.968H46.5718L44.7694 185.233L46.6936 187.644ZM43.6489 187.644H43.0156V182.968H43.6489V187.644Z" fill="#FEFEFE"/>
<path d="M51.4672 187.644H50.8339V183.869L48.0571 187.644H47.4238V182.968H48.0571V186.743L50.8339 182.968H51.4672V187.644Z" fill="#FEFEFE"/>
<path d="M55.9982 181.336C55.9494 181.628 55.8277 181.872 55.6328 182.042C55.4136 182.286 55.0969 182.408 54.7072 182.408C54.3175 182.408 54.0009 182.286 53.7816 182.042C53.5868 181.872 53.465 181.628 53.4163 181.336H53.9521C53.9765 181.531 54.0739 181.677 54.2201 181.774C54.3662 181.872 54.5124 181.921 54.7072 181.921C54.9021 181.921 55.0726 181.872 55.1944 181.774C55.3405 181.677 55.4379 181.531 55.4623 181.336H55.9982ZM56.7289 187.645H56.0956V183.869L53.3188 187.645H52.6855V182.968H53.3188V186.743L56.0956 182.968H56.7289V187.645Z" fill="#FEFEFE"/>
<path d="M66.7397 188.814H66.1308V187.644H62.1118V188.814H61.4785V187.06H61.9657L63.7681 182.968H64.4501L66.2526 187.06H66.7397V188.814ZM65.5949 187.06L64.1091 183.674L62.6477 187.06H65.5949Z" fill="#FEFEFE"/>
<path d="M71.5619 187.644H70.9286V183.869L68.1518 187.644H67.5186V182.968H68.1518V186.743L70.9286 182.968H71.5619V187.644Z" fill="#FEFEFE"/>
<path d="M75.8245 186.353C75.8245 186.767 75.6784 187.084 75.3861 187.352C75.0938 187.62 74.7041 187.742 74.2413 187.742C73.681 187.742 73.267 187.596 72.9747 187.303C72.7311 187.06 72.585 186.719 72.585 186.305H73.2183C73.2183 186.572 73.3157 186.767 73.4862 186.938C73.6567 187.084 73.9246 187.181 74.2413 187.181C74.6066 187.181 74.8746 187.084 75.0207 186.865C75.1425 186.719 75.1912 186.572 75.1912 186.378C75.1912 186.134 75.1425 185.964 75.0207 185.817C74.8746 185.623 74.6066 185.525 74.2413 185.525H73.8272V184.965H74.2413C74.5092 184.965 74.7041 184.892 74.8502 184.721C75.0207 184.575 75.0938 184.38 75.0938 184.161C75.0938 183.966 75.0207 183.796 74.8989 183.65C74.7528 183.503 74.5579 183.43 74.29 183.43C74.0221 183.43 73.8028 183.503 73.6567 183.625C73.5105 183.747 73.4131 183.917 73.3888 184.112H72.7555C72.7798 183.698 72.9747 183.382 73.2913 183.138C73.5593 182.968 73.8759 182.87 74.2413 182.87C74.631 182.87 74.972 182.968 75.2399 183.138C75.5566 183.357 75.7027 183.674 75.7027 184.088C75.7027 184.332 75.654 184.551 75.5322 184.77C75.4104 184.965 75.2399 185.111 74.9964 185.208C75.5566 185.355 75.8245 185.744 75.8245 186.353Z" fill="#FEFEFE"/>
<path d="M81.5979 187.644H81.0134V186.767C80.7698 187.133 80.4775 187.376 80.1365 187.547C79.8442 187.669 79.5276 187.742 79.1866 187.742C78.4802 187.742 77.8956 187.522 77.4085 187.06C76.9213 186.597 76.6777 185.988 76.6777 185.282C76.6777 184.648 76.897 184.112 77.311 183.65C77.7738 183.138 78.3828 182.87 79.1622 182.87C79.6006 182.87 79.966 182.943 80.2583 183.114C80.5506 183.26 80.7941 183.479 80.989 183.796L81.0134 182.968H81.5979V187.644ZM81.0134 185.33C81.0134 184.819 80.8429 184.356 80.4775 183.991C80.1365 183.625 79.6981 183.43 79.1622 183.43C78.6507 183.43 78.2123 183.625 77.8469 183.991C77.5059 184.332 77.311 184.794 77.311 185.33C77.311 185.842 77.5059 186.28 77.8713 186.646C78.2366 187.011 78.675 187.181 79.1866 187.181C79.6981 187.181 80.1121 186.987 80.4775 186.646C80.8429 186.28 81.0134 185.842 81.0134 185.33Z" fill="#FEFEFE"/>
<path d="M86.1525 181.336C86.1037 181.628 85.982 181.872 85.7871 182.042C85.5679 182.286 85.2512 182.408 84.8615 182.408C84.4718 182.408 84.1551 182.286 83.9116 182.042C83.7411 181.872 83.6193 181.628 83.5706 181.336H84.1064C84.1308 181.531 84.2282 181.677 84.35 181.774C84.4962 181.872 84.6667 181.921 84.8615 181.921C85.0564 181.921 85.2269 181.872 85.3487 181.774C85.4948 181.677 85.5679 181.531 85.6166 181.336H86.1525ZM86.8832 187.645H86.2499V183.869L83.4731 187.645H82.8398V182.968H83.4731V186.743L86.2499 182.968H86.8832V187.645Z" fill="#FEFEFE"/>
<path d="M91.9734 187.644H91.3401V185.525H88.7339V187.644H88.1006V182.968H88.7339V184.965H91.3401V182.968H91.9734V187.644Z" fill="#FEFEFE"/>
<path d="M97.8443 185.525H93.6791C93.6791 185.988 93.8496 186.378 94.1906 186.694C94.5316 187.011 94.9701 187.181 95.4572 187.181C95.7982 187.181 96.1392 187.084 96.4072 186.889C96.6995 186.694 96.9187 186.451 97.0648 186.11H97.7225C97.552 186.621 97.2353 187.035 96.8456 187.303C96.4315 187.596 95.9687 187.742 95.4572 187.742C94.7509 187.742 94.1663 187.522 93.7035 187.06C93.2407 186.597 93.0215 186.012 93.0215 185.306C93.0215 184.673 93.2163 184.137 93.6304 183.65C94.0932 183.138 94.7021 182.87 95.4572 182.87C96.261 182.87 96.87 183.162 97.3084 183.747C97.6494 184.234 97.8443 184.819 97.8443 185.525ZM97.1623 184.965C97.0648 184.502 96.87 184.137 96.5533 183.844C96.2367 183.576 95.8713 183.43 95.4572 183.43C94.9944 183.43 94.6047 183.576 94.2881 183.869C93.9471 184.137 93.7522 184.502 93.6791 184.965H97.1623Z" fill="#FEFEFE"/>
<path d="M103.812 185.33C103.812 186.012 103.568 186.597 103.105 187.06C102.618 187.522 102.034 187.742 101.303 187.742C100.816 187.742 100.402 187.62 100.061 187.352C99.8659 187.206 99.6954 187.011 99.5249 186.767V189.276H98.8916V182.968H99.4762V183.771C99.7441 183.43 100.085 183.162 100.475 183.016C100.743 182.919 101.011 182.87 101.327 182.87C102.082 182.87 102.716 183.138 103.179 183.65C103.593 184.112 103.812 184.673 103.812 185.33ZM103.179 185.33C103.179 184.794 102.984 184.332 102.643 183.991C102.277 183.625 101.839 183.43 101.327 183.43C100.791 183.43 100.353 183.625 100.012 183.991C99.6467 184.356 99.4762 184.794 99.4762 185.33C99.4762 185.866 99.6467 186.28 100.012 186.646C100.353 187.011 100.791 187.181 101.303 187.181C101.839 187.181 102.277 187.011 102.643 186.646C102.984 186.28 103.179 185.842 103.179 185.33Z" fill="#FEFEFE"/>
<path d="M5.38345 169.157L3.33743 174.15H0.195312L8.98836 153.86H11.5702L20.2659 174.15H17.0507L15.0047 169.157H5.38345ZM10.1819 157.173L6.38211 166.672H13.9573L10.1819 157.173Z" fill="#FEFEFE"/>
<path d="M25.7219 165.138V174.15H22.8721V153.86H29.3755C31.519 153.86 33.2484 154.323 34.588 155.224C35.9277 156.126 36.6097 157.538 36.6097 159.487C36.6097 160.948 36.1469 162.142 35.2457 163.068C34.3444 163.993 33.1509 164.602 31.6651 164.846L37.3404 174.15H33.906L28.7422 165.138H25.7219ZM25.7219 156.272V162.751H28.9858C32.1523 162.751 33.7355 161.655 33.7355 159.487C33.7355 157.343 32.2253 156.272 29.1807 156.272H25.7219Z" fill="#FEFEFE"/>
<path d="M47.2292 156.369V174.15H44.3794V156.369H37.876V153.86H53.7327V156.369H47.2292Z" fill="#FEFEFE"/>
<path d="M56.4121 174.15V153.86H63.3783C64.7424 153.86 66.0333 154.055 67.2999 154.469C68.5421 154.859 69.7113 155.444 70.783 156.223C71.8547 157.002 72.7073 158.074 73.3649 159.414C73.9982 160.754 74.3392 162.288 74.3392 164.018C74.3392 165.674 73.9982 167.184 73.3649 168.499C72.7073 169.839 71.8547 170.911 70.783 171.715C69.7356 172.494 68.5665 173.103 67.2999 173.517C66.0333 173.931 64.718 174.15 63.3783 174.15H56.4121ZM59.2619 156.345V171.666H62.8181C65.3026 171.666 67.3486 170.984 68.9318 169.62C70.4907 168.256 71.2945 166.38 71.2945 164.018C71.2945 161.557 70.5151 159.682 68.9318 158.342C67.373 157.002 65.3269 156.345 62.8181 156.345H59.2619Z" fill="#2F7B33"/>
<path d="M79.9409 166.161H88.0275C87.9788 165.041 87.6378 164.115 86.9802 163.384C86.3469 162.678 85.4213 162.312 84.2034 162.312C83.0586 162.312 82.0843 162.702 81.2805 163.433C80.4767 164.188 80.0383 165.089 79.9409 166.161ZM90.7312 167.257C90.7312 167.647 90.7312 167.963 90.7069 168.158H79.9409C79.9896 169.327 80.428 170.302 81.2805 171.106C82.1574 171.885 83.1804 172.299 84.3496 172.299C86.0546 172.299 87.3699 171.593 88.2955 170.229L90.1954 171.739C88.7583 173.59 86.8097 174.516 84.3496 174.516C82.2792 174.516 80.5498 173.858 79.2101 172.543C77.8705 171.227 77.1885 169.522 77.1885 167.403C77.1885 165.284 77.8705 163.579 79.1858 162.215C80.5254 160.875 82.2061 160.193 84.2034 160.193C86.2251 160.193 87.8083 160.827 88.9775 162.118C90.1466 163.384 90.7312 165.089 90.7312 167.257Z" fill="#2F7B33"/>
<path d="M103.69 162.434L101.839 164.018C101.522 163.506 101.084 163.116 100.523 162.8C99.9631 162.483 99.3542 162.312 98.6722 162.312C97.9902 162.312 97.4056 162.459 96.8941 162.775C96.4069 163.068 96.1634 163.506 96.1634 164.091C96.1634 164.626 96.4069 165.041 96.8697 165.333C97.3569 165.625 98.1363 165.893 99.2568 166.137C102.277 166.794 103.812 168.134 103.812 170.131C103.812 171.641 103.276 172.738 102.253 173.444C101.205 174.175 99.9144 174.516 98.3799 174.516C97.3325 174.516 96.3095 174.321 95.3352 173.907C94.3609 173.468 93.5571 172.884 92.9238 172.08L94.8481 170.448C95.2134 171.008 95.7006 171.471 96.3826 171.812C97.0402 172.177 97.7222 172.348 98.453 172.348C99.2081 172.348 99.8413 172.202 100.377 171.885C100.889 171.568 101.132 171.057 101.132 170.375C101.132 169.79 100.864 169.327 100.328 169.035C99.7926 168.719 98.867 168.426 97.6005 168.11C97.0646 167.963 96.5774 167.842 96.1877 167.671C95.7737 167.525 95.3839 167.306 94.9455 167.038C94.5314 166.746 94.2148 166.405 93.9712 165.942C93.752 165.503 93.6302 164.967 93.6302 164.359C93.6302 162.97 94.1417 161.947 95.1404 161.241C96.139 160.559 97.3569 160.193 98.7696 160.193C99.7683 160.193 100.718 160.388 101.619 160.778C102.521 161.192 103.203 161.728 103.69 162.434Z" fill="#2F7B33"/>
<path d="M112.142 154.274C112.142 155.224 111.801 156.028 111.094 156.686C110.388 157.343 109.56 157.66 108.586 157.66C107.587 157.66 106.759 157.343 106.077 156.686C105.395 156.028 105.054 155.224 105.054 154.274C105.054 153.324 105.395 152.52 106.077 151.838C106.759 151.156 107.587 150.815 108.586 150.815C109.56 150.815 110.388 151.156 111.094 151.814C111.801 152.472 112.142 153.3 112.142 154.274Z" fill="#FC4700"/>
<path d="M109.925 160.583V187.717H107.246V160.583H109.925Z" fill="#2F7B33"/>
<path d="M113.968 178.413L115.698 176.318C116.282 176.976 117.037 177.512 117.939 177.926C118.815 178.315 119.741 178.51 120.642 178.51C123.833 178.51 125.441 176.854 125.441 173.517V171.909H125.368C124.88 172.664 124.198 173.249 123.346 173.663C122.493 174.053 121.568 174.272 120.593 174.272C118.547 174.272 116.891 173.59 115.649 172.275C114.382 170.935 113.749 169.254 113.749 167.281C113.749 165.284 114.382 163.603 115.649 162.239C116.891 160.875 118.547 160.193 120.569 160.193C121.568 160.193 122.518 160.413 123.395 160.851C124.271 161.289 124.978 161.923 125.465 162.751H125.514V160.583H128.12V173.298C128.12 174.345 127.998 175.295 127.73 176.148C127.487 177.025 127.073 177.828 126.512 178.559C125.952 179.265 125.173 179.85 124.15 180.264C123.151 180.654 121.982 180.873 120.618 180.873C119.449 180.873 118.255 180.654 117.037 180.215C115.844 179.777 114.821 179.168 113.968 178.413ZM116.526 167.233C116.526 168.548 116.94 169.668 117.768 170.594C118.572 171.544 119.668 172.007 121.032 172.007C122.396 172.007 123.516 171.544 124.369 170.643C125.221 169.742 125.635 168.597 125.635 167.233C125.635 165.893 125.197 164.773 124.32 163.847C123.468 162.897 122.347 162.434 121.032 162.434C119.644 162.434 118.547 162.897 117.744 163.823C116.94 164.724 116.526 165.869 116.526 167.233Z" fill="#2F7B33"/>
<path d="M132.626 160.583H135.184C135.257 161.484 135.281 162.239 135.281 162.8H135.378C135.719 162.069 136.304 161.436 137.132 160.948C137.936 160.461 138.837 160.193 139.787 160.193C141.443 160.193 142.71 160.729 143.562 161.752C144.415 162.775 144.853 164.115 144.853 165.723V174.15H142.174V166.624C142.174 163.847 141.127 162.459 139.081 162.459C138.009 162.459 137.132 162.873 136.45 163.701C135.768 164.529 135.427 165.601 135.427 166.94V174.15H132.748V163.506C132.748 162.337 132.699 161.363 132.626 160.583Z" fill="#2F7B33"/>
</g>
<defs>
<clipPath id="clip0_1969_32">
<rect width="145" height="188.554" fill="white" transform="translate(0 0.723145)"/>
</clipPath>
</defs>
</svg>
