<svg width="222" height="59" viewBox="0 0 222 59" fill="none" xmlns="http://www.w3.org/2000/svg">
<g clip-path="url(#clip0_1969_72)">
<path d="M3.72207 50.2082H0.974232V56.5026H0V49.334H3.72207V50.2082Z" fill="black"/>
<path d="M12.4903 52.9561C12.4903 54.0053 12.1156 54.9046 11.3912 55.604C10.6668 56.3035 9.76749 56.6532 8.64337 56.6532C7.89397 56.6532 7.24448 56.4534 6.74487 56.0786C6.42013 55.8538 6.17032 55.5541 5.9455 55.1544L5.92052 59.0013H4.94629V49.334H5.87056V50.583C6.27025 50.0334 6.76985 49.6337 7.36938 49.4089C7.76906 49.259 8.21871 49.1841 8.69334 49.1841C9.86741 49.1841 10.7917 49.5838 11.5161 50.3831C12.1656 51.1076 12.4903 51.9569 12.4903 52.9561ZM11.5161 52.9311C11.5161 52.1068 11.2413 51.4323 10.6918 50.8827C10.1672 50.3332 9.49271 50.0584 8.69334 50.0584C7.86899 50.0584 7.19452 50.3332 6.64495 50.8827C6.12036 51.4323 5.87056 52.1318 5.87056 52.9561C5.87056 53.7555 6.12036 54.4299 6.64495 54.9795C7.16954 55.5041 7.84401 55.7789 8.64337 55.7789C9.46773 55.7789 10.1422 55.5041 10.6918 54.9795C11.2413 54.4299 11.5161 53.7555 11.5161 52.9311Z" fill="black"/>
<path d="M21.3835 56.5025H20.4592V55.1537C20.0845 55.7032 19.6349 56.1029 19.1103 56.3526C18.6856 56.5525 18.186 56.6524 17.6614 56.6524C16.5623 56.6524 15.663 56.3027 14.9136 55.6033C14.1892 54.879 13.8145 53.9798 13.8145 52.8808C13.8145 51.9316 14.1392 51.0824 14.7637 50.383C15.4881 49.5837 16.4374 49.1841 17.6115 49.1841C18.2859 49.1841 18.8605 49.284 19.3101 49.5338C19.7598 49.7835 20.1345 50.1332 20.4342 50.5828L20.4592 49.3339H21.3835V56.5025ZM20.4592 52.9557C20.4592 52.1564 20.1844 51.457 19.6598 50.9075C19.1103 50.3331 18.4358 50.0583 17.6115 50.0583C16.8371 50.0583 16.1626 50.3331 15.613 50.8826C15.0635 51.4321 14.7887 52.1314 14.7887 52.9557C14.7887 53.755 15.0635 54.4294 15.638 54.9789C16.1876 55.5034 16.8621 55.7782 17.6614 55.7782C18.4358 55.7782 19.0853 55.5034 19.6349 54.9539C20.1844 54.4044 20.4592 53.755 20.4592 52.9557Z" fill="black"/>
<path d="M31.5497 52.9562C31.5497 53.8305 31.2499 54.6549 30.6254 55.3793C29.901 56.2286 28.9517 56.6533 27.7527 56.6533V59.0014H26.7785V56.6533C25.6044 56.6533 24.6551 56.2286 23.9307 55.3793C23.3062 54.6549 22.9814 53.8305 22.9814 52.9562C22.9814 51.932 23.3312 51.0577 24.0056 50.3333C24.7301 49.5589 25.6543 49.1842 26.7785 49.1842V46.811H27.7527V49.1842C28.8768 49.1842 29.8011 49.5589 30.5255 50.3333C31.2 51.0577 31.5497 51.932 31.5497 52.9562ZM30.6004 52.9562C30.6004 52.1069 30.3257 51.4324 29.8011 50.8828C29.2515 50.3333 28.577 50.0585 27.7527 50.0585V55.779C28.627 55.779 29.3264 55.4792 29.876 54.8797C30.3506 54.3551 30.6004 53.7056 30.6004 52.9562ZM26.7785 55.779V50.0585C25.9541 50.0585 25.2796 50.3333 24.7301 50.8578C24.2055 51.4074 23.9557 52.1069 23.9557 52.9562C23.9557 53.7056 24.1805 54.3551 24.6801 54.8797C25.2047 55.4792 25.9041 55.779 26.7785 55.779Z" fill="black"/>
<path d="M39.3689 56.5026H38.3947V50.7078L34.1231 56.5026H33.1738V49.334H34.1231V55.1288L38.3947 49.334H39.3689V56.5026Z" fill="black"/>
<path d="M46.3886 56.5026H45.4393V53.805H43.5908C43.1162 53.805 42.7665 53.78 42.5167 53.7051C42.1419 53.6052 41.8422 53.4303 41.5924 53.1556C41.3925 52.9308 41.2676 52.681 41.1927 52.3812C41.1427 52.1065 41.0928 51.7568 41.0928 51.3572V49.334H42.067V51.3572C42.067 51.6819 42.092 51.9317 42.1419 52.1315C42.1669 52.3063 42.2668 52.4562 42.4417 52.631C42.5666 52.7309 42.6915 52.8059 42.8414 52.8558C42.9913 52.9058 43.2411 52.9308 43.5908 52.9308H45.4393V49.334H46.3886V56.5026Z" fill="black"/>
<path d="M55.4059 53.2554H49.0109C49.0109 53.9798 49.2857 54.5543 49.8103 55.0538C50.3349 55.5534 50.9844 55.7782 51.7338 55.7782C52.2834 55.7782 52.783 55.6283 53.2326 55.3535C53.6573 55.0538 54.007 54.6542 54.2318 54.1546H55.231C54.9562 54.9289 54.4816 55.5534 53.8821 56.003C53.2576 56.4276 52.5332 56.6524 51.7338 56.6524C50.6596 56.6524 49.7853 56.3027 49.0609 55.6033C48.3614 54.879 48.0117 54.0048 48.0117 52.9307C48.0117 51.9566 48.3115 51.1074 48.936 50.383C49.6604 49.5837 50.5847 49.1841 51.7338 49.1841C52.9828 49.1841 53.9321 49.6337 54.5815 50.5079C55.1311 51.2572 55.4059 52.1814 55.4059 53.2554ZM54.3567 52.3812C54.2318 51.6818 53.9071 51.1074 53.4324 50.6827C52.9328 50.2581 52.3833 50.0583 51.7338 50.0583C51.0343 50.0583 50.4598 50.2581 49.9602 50.7077C49.4356 51.1323 49.1358 51.6818 49.0109 52.3812H54.3567Z" fill="black"/>
<path d="M64.0497 51.507H62.9506C62.7257 51.0574 62.401 50.6827 61.9763 50.433C61.5517 50.1832 61.077 50.0583 60.5525 50.0583C59.7281 50.0583 59.0536 50.3331 58.5041 50.8576C57.9795 51.4071 57.7047 52.0815 57.7047 52.9057C57.7047 53.705 57.9795 54.3794 58.554 54.9539C59.1036 55.5034 59.7781 55.7782 60.5525 55.7782C61.0521 55.7782 61.5267 55.6533 61.9514 55.4285C62.376 55.1787 62.7008 54.854 62.9506 54.4044H64.0247C63.725 55.0288 63.3503 55.5534 62.8506 55.928C62.2261 56.4276 61.4517 56.6524 60.5525 56.6524C59.4034 56.6524 58.4541 56.2777 57.7297 55.4784C57.0802 54.7791 56.7305 53.9048 56.7305 52.9057C56.7305 51.9566 57.0552 51.1323 57.7047 50.408C58.4291 49.5837 59.3784 49.1841 60.5525 49.1841C61.3768 49.1841 62.0763 49.3839 62.7008 49.8085C63.3003 50.2082 63.7499 50.7826 64.0497 51.507Z" fill="black"/>
<path d="M71.3438 56.5026H70.1198L67.247 52.8808L70.0448 49.334H71.1689L68.4211 52.7809L71.3438 56.5026ZM66.6725 56.5026H65.6982V49.334H66.6725V56.5026Z" fill="black"/>
<path d="M78.6883 56.5026H77.714V50.7078L73.4424 56.5026H72.4932V49.334H73.4424V55.1288L77.714 49.334H78.6883V56.5026Z" fill="black"/>
<path d="M85.6325 46.811C85.5576 47.2607 85.3827 47.6354 85.1079 47.9102C84.7332 48.2849 84.2586 48.4597 83.6591 48.4597C83.0596 48.4597 82.5849 48.2849 82.2102 47.9102C81.9354 47.6354 81.7606 47.2607 81.6607 46.811H82.485C82.5599 47.1108 82.6848 47.3356 82.9097 47.4855C83.1095 47.6354 83.3593 47.7353 83.6591 47.7353C83.9588 47.7353 84.2086 47.6604 84.4335 47.5105C84.6333 47.3606 84.7582 47.1358 84.8332 46.811H85.6325ZM86.7566 56.5034H85.7824V50.708L81.5358 56.5034H80.5615V49.334H81.5358V55.1295L85.7824 49.334H86.7566V56.5034Z" fill="black"/>
<path d="M102.144 58.3009H101.17V56.5025H94.9996V58.3009H94.0254V55.6034H94.7748L97.5726 49.334H98.6218L101.395 55.6034H102.144V58.3009ZM100.345 55.6034L98.0972 50.433L95.824 55.6034H100.345Z" fill="black"/>
<path d="M109.539 56.5026H108.565V50.7078L104.293 56.5026H103.344V49.334H104.293V55.1288L108.565 49.334H109.539V56.5026Z" fill="black"/>
<path d="M116.083 54.5293C116.083 55.1537 115.859 55.6533 115.409 56.0529C114.934 56.4526 114.36 56.6524 113.635 56.6524C112.786 56.6524 112.136 56.4276 111.712 56.003C111.312 55.6033 111.112 55.0788 111.112 54.4294H112.087C112.087 54.829 112.211 55.1537 112.486 55.4035C112.761 55.6533 113.136 55.7782 113.635 55.7782C114.185 55.7782 114.585 55.6283 114.859 55.3036C115.034 55.1038 115.109 54.854 115.109 54.5543C115.109 54.2046 115.009 53.9048 114.834 53.705C114.585 53.4053 114.185 53.2554 113.635 53.2554H112.986V52.3812H113.635C114.035 52.3812 114.36 52.2813 114.585 52.0315C114.809 51.8067 114.934 51.507 114.934 51.1823C114.934 50.8576 114.834 50.5828 114.635 50.383C114.41 50.1582 114.11 50.0583 113.71 50.0583C113.286 50.0583 112.961 50.1332 112.736 50.3331C112.511 50.5079 112.361 50.7826 112.311 51.0824H111.337C111.412 50.4579 111.687 49.9584 112.186 49.6087C112.611 49.309 113.086 49.1841 113.635 49.1841C114.26 49.1841 114.759 49.309 115.159 49.5837C115.659 49.9334 115.884 50.408 115.884 51.0324C115.884 51.4321 115.809 51.7818 115.609 52.0815C115.434 52.3812 115.159 52.606 114.809 52.7559C115.659 52.9807 116.083 53.5801 116.083 54.5293Z" fill="black"/>
<path d="M124.952 56.5025H124.028V55.1537C123.653 55.7032 123.203 56.1029 122.679 56.3526C122.254 56.5525 121.754 56.6524 121.23 56.6524C120.131 56.6524 119.231 56.3027 118.482 55.6033C117.758 54.879 117.383 53.9798 117.383 52.8808C117.383 51.9316 117.708 51.0824 118.332 50.383C119.056 49.5837 120.006 49.1841 121.18 49.1841C121.854 49.1841 122.429 49.284 122.878 49.5338C123.328 49.7835 123.703 50.1332 124.003 50.5828L124.028 49.3339H124.952V56.5025ZM124.028 52.9557C124.028 52.1564 123.753 51.457 123.228 50.9075C122.679 50.3331 122.004 50.0583 121.18 50.0583C120.405 50.0583 119.731 50.3331 119.181 50.8826C118.632 51.4321 118.357 52.1314 118.357 52.9557C118.357 53.755 118.632 54.4294 119.206 54.9789C119.756 55.5034 120.43 55.7782 121.23 55.7782C122.004 55.7782 122.654 55.5034 123.203 54.9539C123.753 54.4044 124.028 53.755 124.028 52.9557Z" fill="black"/>
<path d="M131.921 46.811C131.821 47.2607 131.646 47.6354 131.372 47.9102C130.997 48.2849 130.522 48.4597 129.923 48.4597C129.323 48.4597 128.849 48.2849 128.499 47.9102C128.199 47.6354 128.024 47.2607 127.949 46.811H128.774C128.824 47.1108 128.949 47.3356 129.173 47.4855C129.373 47.6354 129.648 47.7353 129.923 47.7353C130.223 47.7353 130.472 47.6604 130.697 47.5105C130.897 47.3606 131.047 47.1358 131.097 46.811H131.921ZM133.02 56.5034H132.046V50.708L127.799 56.5034H126.825V49.334H127.799V55.1295L132.046 49.334H133.02V56.5034Z" fill="black"/>
<path d="M140.839 56.5026H139.865V53.2555H135.868V56.5026H134.919V49.334H135.868V52.3812H139.865V49.334H140.839V56.5026Z" fill="black"/>
<path d="M149.857 53.2554H143.462C143.462 53.9798 143.712 54.5543 144.261 55.0538C144.786 55.5534 145.436 55.7782 146.185 55.7782C146.735 55.7782 147.209 55.6283 147.659 55.3535C148.108 55.0538 148.433 54.6542 148.683 54.1546H149.682C149.382 54.9289 148.933 55.5534 148.308 56.003C147.709 56.4276 146.984 56.6524 146.185 56.6524C145.111 56.6524 144.236 56.3027 143.512 55.6033C142.813 54.879 142.463 54.0048 142.463 52.9307C142.463 51.9566 142.763 51.1074 143.387 50.383C144.087 49.5837 145.036 49.1841 146.185 49.1841C147.409 49.1841 148.358 49.6337 149.033 50.5079C149.582 51.2572 149.857 52.1814 149.857 53.2554ZM148.808 52.3812C148.683 51.6818 148.358 51.1074 147.884 50.6827C147.384 50.2581 146.809 50.0583 146.185 50.0583C145.486 50.0583 144.886 50.2581 144.386 50.7077C143.887 51.1323 143.587 51.6818 143.462 52.3812H148.808Z" fill="black"/>
<path d="M159 52.9561C159 54.0053 158.625 54.9046 157.926 55.604C157.202 56.3035 156.277 56.6532 155.178 56.6532C154.404 56.6532 153.779 56.4534 153.255 56.0786C152.955 55.8538 152.68 55.5541 152.455 55.1544L152.43 59.0013H151.456V49.334H152.38V50.583C152.78 50.0334 153.28 49.6337 153.879 49.4089C154.279 49.259 154.728 49.1841 155.203 49.1841C156.377 49.1841 157.326 49.5838 158.026 50.3831C158.675 51.1076 159 51.9569 159 52.9561ZM158.026 52.9311C158.026 52.1068 157.751 51.4323 157.227 50.8827C156.677 50.3332 156.002 50.0584 155.203 50.0584C154.379 50.0584 153.704 50.3332 153.18 50.8827C152.63 51.4323 152.38 52.1318 152.38 52.9561C152.38 53.7555 152.63 54.4299 153.155 54.9795C153.679 55.5041 154.354 55.7789 155.178 55.7789C155.977 55.7789 156.652 55.5041 157.202 54.9795C157.751 54.4299 158.026 53.7555 158.026 52.9311Z" fill="black"/>
<path d="M7.96872 28.1509L4.84618 35.7949H0L13.4894 4.66943H17.4612L30.8257 35.7949H25.8796L22.7321 28.1509H7.96872ZM15.3379 9.74044L9.49252 24.3289H21.1333L15.3379 9.74044Z" fill="black"/>
<path d="M39.1688 21.9558V35.7949H34.8223V4.66943H44.7894C48.0868 4.66943 50.7347 5.36888 52.7831 6.7428C54.8565 8.11672 55.8807 10.315 55.8807 13.2876C55.8807 15.5109 55.1812 17.3594 53.8073 18.7833C52.4334 20.2322 50.5848 21.1315 48.3116 21.5062L57.0048 35.7949H51.7339L43.8152 21.9558H39.1688ZM39.1688 8.36652V18.3087H44.1899C49.0361 18.3087 51.4841 16.635 51.4841 13.2876C51.4841 10.0152 49.136 8.36652 44.4896 8.36652H39.1688Z" fill="black"/>
<path d="M72.1932 8.49142V35.7949H67.8216V8.49142H57.8545V4.66943H82.1603V8.49142H72.1932Z" fill="black"/>
<path d="M86.2822 35.7949V4.66943H96.9738C99.0472 4.66943 101.046 4.9692 102.969 5.56872C104.893 6.16825 106.666 7.09252 108.315 8.29158C109.964 9.49063 111.288 11.1144 112.262 13.1877C113.261 15.2611 113.761 17.6092 113.761 20.2322C113.761 22.7802 113.261 25.0783 112.262 27.1517C111.288 29.2001 109.964 30.8238 108.34 32.0479C106.716 33.2469 104.918 34.1962 102.969 34.8456C101.021 35.4702 99.0222 35.7949 96.9738 35.7949H86.2822ZM90.6538 8.46644V31.9729H96.0995C99.9465 31.9729 103.069 30.9237 105.492 28.8254C107.89 26.727 109.114 23.8793 109.114 20.2322C109.114 16.4851 107.915 13.5874 105.492 11.539C103.094 9.49063 99.9714 8.46644 96.0995 8.46644H90.6538Z" fill="#2F7B33"/>
<path d="M122.379 23.5295H134.769C134.719 21.8059 134.195 20.382 133.195 19.2829C132.196 18.1837 130.772 17.6342 128.924 17.6342C127.175 17.6342 125.676 18.2087 124.452 19.3578C123.228 20.5069 122.529 21.9058 122.379 23.5295ZM138.966 25.2032C138.966 25.8277 138.941 26.3023 138.916 26.6021H122.379C122.454 28.4007 123.128 29.8995 124.452 31.1235C125.776 32.3476 127.325 32.9471 129.149 32.9471C131.771 32.9471 133.795 31.8979 135.219 29.7746L138.116 32.0978C135.918 34.9455 132.946 36.3694 129.149 36.3694C125.951 36.3694 123.328 35.3702 121.255 33.3468C119.206 31.3234 118.157 28.6755 118.157 25.428C118.157 22.2056 119.181 19.5576 121.23 17.4843C123.303 15.4359 125.851 14.3867 128.924 14.3867C132.021 14.3867 134.444 15.361 136.243 17.3094C138.067 19.2579 138.966 21.9058 138.966 25.2032Z" fill="#2F7B33"/>
<path d="M158.825 17.834L155.977 20.2321C155.503 19.4827 154.828 18.8582 153.979 18.3836C153.105 17.884 152.155 17.6342 151.131 17.6342C150.082 17.6342 149.183 17.884 148.408 18.3336C147.659 18.7833 147.259 19.4577 147.259 20.382C147.259 21.1814 147.634 21.8309 148.358 22.2555C149.108 22.7052 150.307 23.1048 152.005 23.5045C156.677 24.5287 159 26.5771 159 29.6497C159 31.9229 158.201 33.6216 156.602 34.7207C155.003 35.8198 153.03 36.3694 150.706 36.3694C149.058 36.3694 147.484 36.0446 145.985 35.3952C144.486 34.7707 143.262 33.8464 142.288 32.6473L145.236 30.1243C145.81 30.9736 146.585 31.6731 147.584 32.2227C148.608 32.7722 149.657 33.022 150.781 33.022C151.955 33.022 152.93 32.7972 153.729 32.2976C154.528 31.823 154.903 31.0486 154.903 29.9994C154.903 29.1001 154.503 28.4007 153.654 27.926C152.83 27.4514 151.431 27.0018 149.457 26.5271C148.633 26.3273 147.934 26.1025 147.309 25.8777C146.685 25.6279 146.06 25.3031 145.411 24.8784C144.786 24.4538 144.287 23.9042 143.937 23.2048C143.562 22.5303 143.387 21.7059 143.387 20.7567C143.387 18.6584 144.162 17.0596 145.71 15.9855C147.234 14.9363 149.108 14.3867 151.256 14.3867C152.78 14.3867 154.254 14.6865 155.628 15.286C157.026 15.8855 158.101 16.7349 158.825 17.834Z" fill="#2F7B33"/>
<path d="M171.79 5.29387C171.79 6.74273 171.265 7.96677 170.191 8.99096C169.117 9.99017 167.818 10.5148 166.319 10.5148C164.82 10.5148 163.546 9.99017 162.497 8.99096C161.448 7.96677 160.948 6.74273 160.948 5.29387C160.948 3.84501 161.448 2.596 162.497 1.57181C163.546 0.522633 164.82 -0.00195312 166.319 -0.00195312C167.818 -0.00195312 169.117 0.497653 170.191 1.52185C171.265 2.52106 171.79 3.79505 171.79 5.29387Z" fill="#FC4700"/>
<path d="M168.417 14.9614V56.6036H164.271V14.9614H168.417Z" fill="#2F7B33"/>
<path d="M174.612 42.3397L177.235 39.1172C178.16 40.1414 179.309 40.9658 180.683 41.5903C182.057 42.1898 183.455 42.5145 184.854 42.5145C189.75 42.5145 192.199 39.9416 192.199 34.8206V32.3725H192.099C191.349 33.5216 190.3 34.3959 188.976 35.0205C187.677 35.6699 186.253 35.9697 184.754 35.9697C181.632 35.9697 179.084 34.9455 177.16 32.8971C175.212 30.8487 174.263 28.3008 174.263 25.2532C174.263 22.1806 175.212 19.5826 177.16 17.5093C179.084 15.4359 181.607 14.3867 184.729 14.3867C186.278 14.3867 187.727 14.7364 189.076 15.4109C190.425 16.0854 191.474 17.0346 192.249 18.3086H192.323V14.9613H196.32V34.4959C196.32 36.0946 196.12 37.5435 195.721 38.8674C195.346 40.2164 194.697 41.4404 193.847 42.5395C192.973 43.6636 191.774 44.538 190.225 45.1625C188.701 45.787 186.878 46.1117 184.804 46.1117C182.981 46.1117 181.157 45.762 179.309 45.0875C177.46 44.413 175.886 43.4888 174.612 42.3397ZM178.509 25.1532C178.509 27.1766 179.159 28.9253 180.408 30.3491C181.682 31.798 183.331 32.4974 185.429 32.4974C187.527 32.4974 189.251 31.798 190.55 30.4241C191.849 29.0252 192.498 27.2766 192.498 25.1532C192.498 23.1298 191.824 21.4062 190.5 19.9823C189.176 18.5335 187.477 17.834 185.429 17.834C183.306 17.834 181.632 18.5335 180.383 19.9323C179.134 21.3312 178.509 23.0799 178.509 25.1532Z" fill="#2F7B33"/>
<path d="M203.215 14.9613H207.137C207.262 16.3602 207.312 17.5093 207.312 18.3836H207.437C207.986 17.2595 208.86 16.3102 210.134 15.5358C211.383 14.7864 212.757 14.3867 214.206 14.3867C216.754 14.3867 218.703 15.1861 220.027 16.7598C221.326 18.3586 222 20.382 222 22.88V35.7948H217.853V24.229C217.853 19.9823 216.28 17.859 213.107 17.859C211.483 17.859 210.134 18.5085 209.085 19.7575C208.061 21.0065 207.536 22.6802 207.536 24.7286V35.7948H203.39V19.4577C203.39 17.6591 203.34 16.1603 203.215 14.9613Z" fill="#2F7B33"/>
</g>
<defs>
<clipPath id="clip0_1969_72">
<rect width="222" height="59.0064" fill="white" transform="translate(0 -0.00341797)"/>
</clipPath>
</defs>
</svg>
