<svg width="388" height="53" viewBox="0 0 388 53" fill="none" xmlns="http://www.w3.org/2000/svg">
<path d="M2.29 52V50.505C3.46 50.4617 4.37 50.3317 5.02 50.115C5.67 49.8983 6.125 49.4433 6.385 48.75C6.68833 48.0567 6.84 46.9733 6.84 45.5V15.275C6.84 13.7583 6.66667 12.675 6.32 12.025C6.01667 11.3317 5.43167 10.8767 4.565 10.66C3.69833 10.4433 2.39833 10.3133 0.665 10.27V8.775H16.915V10.27C15.745 10.3133 14.835 10.4433 14.185 10.66C13.535 10.8767 13.0583 11.3317 12.755 12.025C12.495 12.675 12.365 13.7583 12.365 15.275V45.5C12.365 47.3633 12.69 48.5333 13.34 49.01C14.0333 49.4433 15.355 49.66 17.305 49.66H23.22C25.3867 49.66 27.055 49.3133 28.225 48.62C29.4383 47.8833 30.305 46.93 30.825 45.76C31.3883 44.5467 31.735 43.2467 31.865 41.86H33.36L32.84 52H2.29ZM50.811 52.975C48.601 52.975 46.4776 52.455 44.441 51.415C42.4476 50.375 40.801 48.815 39.501 46.735C38.2443 44.6117 37.616 41.925 37.616 38.675C37.616 35.3817 38.266 32.5217 39.566 30.095C40.866 27.6683 42.5993 25.7833 44.766 24.44C46.9326 23.0967 49.2943 22.425 51.851 22.425C53.7143 22.425 55.426 22.7933 56.986 23.53C58.5893 24.2667 59.8676 25.3933 60.821 26.91C61.8176 28.4267 62.316 30.355 62.316 32.695L42.816 35.23C42.816 35.4467 42.816 35.685 42.816 35.945C42.816 39.9317 43.726 43.0517 45.546 45.305C47.366 47.5583 49.7926 48.685 52.826 48.685C54.5593 48.685 56.1626 48.3383 57.636 47.645C59.1093 46.9083 60.431 45.9983 61.601 44.915L62.641 45.955C61.4276 48.035 59.8026 49.725 57.766 51.025C55.7726 52.325 53.4543 52.975 50.811 52.975ZM50.486 24.83C48.2326 24.83 46.4993 25.6317 45.286 27.235C44.0726 28.8383 43.3143 30.81 43.011 33.15L56.466 31.395C56.206 29.5317 55.6426 27.9717 54.776 26.715C53.9093 25.4583 52.4793 24.83 50.486 24.83ZM78.4954 52.65C78.1921 51.5233 77.8887 50.5483 77.5854 49.725C77.3254 48.9017 76.9571 47.9483 76.4804 46.865L69.2004 29.77C68.5937 28.2967 68.0304 27.235 67.5104 26.585C67.0337 25.935 66.5137 25.5017 65.9504 25.285C65.4304 25.0683 64.7804 24.9383 64.0004 24.895V23.4H77.7154V24.895C76.2421 24.9383 75.2021 25.09 74.5954 25.35C73.9887 25.5667 73.7287 26.0217 73.8154 26.715C73.9021 27.365 74.2271 28.3833 74.7904 29.77L81.0954 44.72H81.2254L87.4004 29.77C88.2671 27.7333 88.4187 26.4333 87.8554 25.87C87.3354 25.3067 85.9271 24.9817 83.6304 24.895V23.4H95.1354V24.895C94.4854 24.9383 93.9004 25.09 93.3804 25.35C92.8604 25.5667 92.3621 26.0217 91.8854 26.715C91.4521 27.365 90.9321 28.3833 90.3254 29.77L83.1104 46.865C82.6337 48.035 82.2871 49.01 82.0704 49.79C81.8537 50.57 81.6154 51.5233 81.3554 52.65H78.4954ZM106.697 45.435C106.697 46.9517 106.827 48.0567 107.087 48.75C107.347 49.4433 107.758 49.8983 108.322 50.115C108.885 50.3317 109.643 50.4617 110.597 50.505V52H97.5968V50.505C98.5934 50.4617 99.3734 50.3317 99.9368 50.115C100.5 49.8983 100.89 49.4433 101.107 48.75C101.367 48.0567 101.497 46.9517 101.497 45.435V9.295C101.497 8.08166 101.323 7.30166 100.977 6.955C100.63 6.60833 100.132 6.435 99.4818 6.435C98.9184 6.435 98.3118 6.52166 97.6618 6.695C97.0551 6.86833 96.4918 7.085 95.9718 7.345L95.3218 5.85L106.567 0.649999L106.957 1.04C106.913 1.38666 106.848 2.31833 106.762 3.835C106.718 5.35166 106.697 7.15 106.697 9.23V38.22H106.827L114.822 29.38C115.645 28.5133 116.187 27.885 116.447 27.495C116.75 27.0617 116.902 26.6717 116.902 26.325C116.902 25.9783 116.707 25.675 116.317 25.415C115.927 25.155 114.908 24.9817 113.262 24.895V23.4H126.262V24.895C124.658 24.9817 123.358 25.285 122.362 25.805C121.408 26.2817 120.368 27.1267 119.242 28.34L114.432 33.54L122.102 45.305C123.142 46.8217 124.03 47.97 124.767 48.75C125.503 49.4867 126.24 49.9633 126.977 50.18C127.757 50.3967 128.623 50.505 129.577 50.505V52C128.493 52.26 127.41 52.39 126.327 52.39C123.987 52.39 122.145 51.935 120.802 51.025C119.458 50.0717 118.288 48.88 117.292 47.45L110.662 37.57L106.697 41.86V45.435ZM146.826 22.425C149.339 22.425 151.636 23.0533 153.716 24.31C155.839 25.5233 157.551 27.235 158.851 29.445C160.151 31.655 160.801 34.2333 160.801 37.18C160.801 39.78 160.346 42.0767 159.436 44.07C158.569 46.02 157.399 47.6667 155.926 49.01C154.452 50.31 152.827 51.3067 151.051 52C149.317 52.65 147.606 52.975 145.916 52.975C143.446 52.975 141.149 52.3683 139.026 51.155C136.902 49.8983 135.191 48.165 133.891 45.955C132.634 43.745 132.006 41.1667 132.006 38.22C132.006 35.62 132.439 33.345 133.306 31.395C134.216 29.4017 135.407 27.755 136.881 26.455C138.354 25.1117 139.957 24.115 141.691 23.465C143.424 22.7717 145.136 22.425 146.826 22.425ZM147.021 50.375C149.577 50.375 151.592 49.465 153.066 47.645C154.539 45.7817 155.276 42.9217 155.276 39.065C155.276 36.4217 154.864 34.0383 154.041 31.915C153.261 29.7917 152.156 28.1233 150.726 26.91C149.296 25.6533 147.627 25.025 145.721 25.025C143.207 25.025 141.214 25.9567 139.741 27.82C138.267 29.64 137.531 32.4783 137.531 36.335C137.531 38.935 137.921 41.2967 138.701 43.42C139.524 45.5433 140.651 47.2333 142.081 48.49C143.511 49.7467 145.157 50.375 147.021 50.375ZM177.646 52.65C177.342 51.5233 177.039 50.5483 176.736 49.725C176.476 48.9017 176.107 47.9483 175.631 46.865L168.351 29.77C167.744 28.2967 167.181 27.235 166.661 26.585C166.184 25.935 165.664 25.5017 165.101 25.285C164.581 25.0683 163.931 24.9383 163.151 24.895V23.4H176.866V24.895C175.392 24.9383 174.352 25.09 173.746 25.35C173.139 25.5667 172.879 26.0217 172.966 26.715C173.052 27.365 173.377 28.3833 173.941 29.77L180.246 44.72H180.376L186.551 29.77C187.417 27.7333 187.569 26.4333 187.006 25.87C186.486 25.3067 185.077 24.9817 182.781 24.895V23.4H194.286V24.895C193.636 24.9383 193.051 25.09 192.531 25.35C192.011 25.5667 191.512 26.0217 191.036 26.715C190.602 27.365 190.082 28.3833 189.476 29.77L182.261 46.865C181.784 48.035 181.437 49.01 181.221 49.79C181.004 50.57 180.766 51.5233 180.506 52.65H177.646ZM204.222 52.975C202.185 52.975 200.517 52.455 199.217 51.415C197.96 50.3317 197.332 48.7933 197.332 46.8C197.332 45.1967 197.83 43.7233 198.827 42.38C199.824 41.0367 201.47 39.8017 203.767 38.675C206.064 37.5483 209.184 36.5083 213.127 35.555V31.33C213.127 29.5533 212.737 28.08 211.957 26.91C211.22 25.74 209.79 25.155 207.667 25.155C205.63 25.155 204.005 25.805 202.792 27.105C201.622 28.3617 200.799 30.3333 200.322 33.02H198.827V24.895C200.344 24.1583 201.947 23.5733 203.637 23.14C205.37 22.6633 207.277 22.425 209.357 22.425C211.74 22.425 213.56 22.75 214.817 23.4C216.117 24.0067 217.027 24.8733 217.547 26C218.067 27.1267 218.327 28.4483 218.327 29.965V45.695C218.327 47.9917 219.042 49.14 220.472 49.14C220.992 49.14 221.577 48.9667 222.227 48.62C222.92 48.2733 223.722 47.5583 224.632 46.475L225.672 47.515C223.679 50.9383 221.295 52.65 218.522 52.65C215.662 52.65 213.907 51.1983 213.257 48.295H213.127C210.744 51.415 207.775 52.975 204.222 52.975ZM206.627 49.14C208.707 49.14 210.874 48.1867 213.127 46.28V37.57C210.007 38.35 207.71 39.2167 206.237 40.17C204.764 41.08 203.789 42.0117 203.312 42.965C202.879 43.875 202.662 44.72 202.662 45.5C202.662 46.7567 203.052 47.6883 203.832 48.295C204.612 48.8583 205.544 49.14 206.627 49.14ZM279.711 45.5C280.231 47.0167 280.729 48.1217 281.206 48.815C281.683 49.465 282.246 49.8983 282.896 50.115C283.589 50.2883 284.499 50.4183 285.626 50.505V52H270.091V50.505C271.564 50.4183 272.648 50.2667 273.341 50.05C274.078 49.8333 274.489 49.3783 274.576 48.685C274.663 47.9917 274.446 46.93 273.926 45.5L270.221 34.32C270.004 34.5367 269.679 34.6883 269.246 34.775C268.813 34.8183 268.358 34.84 267.881 34.84H259.366C258.413 34.84 257.698 34.9483 257.221 35.165C256.744 35.3817 256.333 35.9667 255.986 36.92L252.931 45.5C252.368 47.1467 252.368 48.3817 252.931 49.205C253.538 49.985 255.228 50.4183 258.001 50.505V52H244.546V50.505C245.933 50.4183 247.016 49.985 247.796 49.205C248.619 48.3817 249.334 47.1467 249.941 45.5L261.446 13.91C261.879 12.7833 262.291 11.6783 262.681 10.595C263.071 9.51166 263.418 8.40666 263.721 7.28H266.906C267.209 8.40666 267.534 9.51166 267.881 10.595C268.271 11.6783 268.683 12.7833 269.116 13.91L279.711 45.5ZM268.011 32.5C268.574 32.5 268.964 32.435 269.181 32.305C269.398 32.1317 269.398 31.785 269.181 31.265L263.851 15.47H263.721L257.481 32.695C257.698 32.6083 257.958 32.565 258.261 32.565C258.564 32.5217 258.911 32.5 259.301 32.5H268.011ZM297.571 45.435C297.571 46.9517 297.722 48.0567 298.026 48.75C298.329 49.4433 298.871 49.8983 299.651 50.115C300.474 50.3317 301.622 50.4617 303.096 50.505V52H288.471V50.505C289.424 50.4617 290.182 50.3317 290.746 50.115C291.309 49.8983 291.721 49.4433 291.981 48.75C292.241 48.0567 292.371 46.9517 292.371 45.435V9.295C292.371 8.08166 292.176 7.30166 291.786 6.955C291.439 6.60833 290.962 6.435 290.356 6.435C289.792 6.435 289.186 6.52166 288.536 6.695C287.929 6.86833 287.366 7.085 286.846 7.345L286.196 5.85L297.441 0.649999L297.831 1.04C297.787 1.38666 297.722 2.31833 297.636 3.835C297.592 5.35166 297.571 7.15 297.571 9.23V45.435ZM320.459 52.975C318.249 52.975 316.126 52.455 314.089 51.415C312.096 50.375 310.449 48.815 309.149 46.735C307.893 44.6117 307.264 41.925 307.264 38.675C307.264 35.3817 307.914 32.5217 309.214 30.095C310.514 27.6683 312.248 25.7833 314.414 24.44C316.581 23.0967 318.943 22.425 321.499 22.425C323.363 22.425 325.074 22.7933 326.634 23.53C328.238 24.2667 329.516 25.3933 330.469 26.91C331.466 28.4267 331.964 30.355 331.964 32.695L312.464 35.23C312.464 35.4467 312.464 35.685 312.464 35.945C312.464 39.9317 313.374 43.0517 315.194 45.305C317.014 47.5583 319.441 48.685 322.474 48.685C324.208 48.685 325.811 48.3383 327.284 47.645C328.758 46.9083 330.079 45.9983 331.249 44.915L332.289 45.955C331.076 48.035 329.451 49.725 327.414 51.025C325.421 52.325 323.103 52.975 320.459 52.975ZM320.134 24.83C317.881 24.83 316.148 25.6317 314.934 27.235C313.721 28.8383 312.963 30.81 312.659 33.15L326.114 31.395C325.854 29.5317 325.291 27.9717 324.424 26.715C323.558 25.4583 322.128 24.83 320.134 24.83ZM366.405 52.975C364.368 52.975 362.7 52.455 361.4 51.415C360.143 50.3317 359.515 48.7933 359.515 46.8C359.515 45.1967 360.013 43.7233 361.01 42.38C362.006 41.0367 363.653 39.8017 365.95 38.675C368.246 37.5483 371.366 36.5083 375.31 35.555V31.33C375.31 29.5533 374.92 28.08 374.14 26.91C373.403 25.74 371.973 25.155 369.85 25.155C367.813 25.155 366.188 25.805 364.975 27.105C363.805 28.3617 362.981 30.3333 362.505 33.02H361.01V24.895C362.526 24.1583 364.13 23.5733 365.82 23.14C367.553 22.6633 369.46 22.425 371.54 22.425C373.923 22.425 375.743 22.75 377 23.4C378.3 24.0067 379.21 24.8733 379.73 26C380.25 27.1267 380.51 28.4483 380.51 29.965V45.695C380.51 47.9917 381.225 49.14 382.655 49.14C383.175 49.14 383.76 48.9667 384.41 48.62C385.103 48.2733 385.905 47.5583 386.815 46.475L387.855 47.515C385.861 50.9383 383.478 52.65 380.705 52.65C377.845 52.65 376.09 51.1983 375.44 48.295H375.31C372.926 51.415 369.958 52.975 366.405 52.975ZM368.81 49.14C370.89 49.14 373.056 48.1867 375.31 46.28V37.57C372.19 38.35 369.893 39.2167 368.42 40.17C366.946 41.08 365.971 42.0117 365.495 42.965C365.061 43.875 364.845 44.72 364.845 45.5C364.845 46.7567 365.235 47.6883 366.015 48.295C366.795 48.8583 367.726 49.14 368.81 49.14Z" fill="black"/>
<path d="M331.764 52.52C333.324 49.3567 334.819 46.2367 336.249 43.16C337.722 40.04 339.217 37.0717 340.734 34.255C341.6 32.695 342.315 31.6117 342.879 31.005C343.485 30.355 344.287 30.03 345.284 30.03C345.63 30.03 345.999 30.095 346.389 30.225C346.779 30.3117 347.169 30.355 347.559 30.355C347.819 30.355 348.014 30.3333 348.144 30.29C347.537 30.6367 346.757 31.5033 345.804 32.89C344.85 34.2333 343.875 35.7933 342.879 37.57C341.882 39.3467 340.994 41.015 340.214 42.575C341.037 41.5783 341.882 40.5817 342.749 39.585C343.659 38.5883 344.655 37.635 345.739 36.725C346.779 35.815 348.014 34.8833 349.444 33.93C350.917 32.9333 352.347 32.11 353.734 31.46C355.12 30.81 356.225 30.485 357.049 30.485C357.352 30.485 357.569 30.5067 357.699 30.55C357.699 30.55 357.46 30.9833 356.984 31.85C356.507 32.6733 355.9 33.7783 355.164 35.165C354.47 36.5083 353.755 37.96 353.019 39.52C352.282 41.0367 351.61 42.51 351.004 43.94C350.44 45.3267 350.072 46.4967 349.899 47.45C349.769 48.0133 349.704 48.5333 349.704 49.01C349.704 49.7033 349.834 50.1583 350.094 50.375C350.354 50.5917 350.635 50.7 350.939 50.7C351.762 50.7 352.629 50.2667 353.539 49.4C354.449 48.49 355.315 47.385 356.139 46.085C357.005 44.785 357.764 43.5283 358.414 42.315C359.107 41.0583 359.605 40.105 359.909 39.455C360.082 39.1083 360.212 38.9133 360.299 38.87C360.385 38.7833 360.515 38.74 360.689 38.74C360.949 38.74 361.079 38.9133 361.079 39.26C361.079 39.4767 361.014 39.715 360.884 39.975C360.364 40.9717 359.735 42.1633 358.999 43.55C358.305 44.9367 357.504 46.3017 356.594 47.645C355.684 48.945 354.687 50.05 353.604 50.96C352.52 51.8267 351.35 52.26 350.094 52.26C349.227 52.26 348.317 51.9567 347.364 51.35C346.454 50.7433 345.999 49.6167 345.999 47.97C345.999 47.4933 346.042 46.995 346.129 46.475C346.215 45.9117 346.367 45.305 346.584 44.655C346.93 43.7883 347.342 42.8567 347.819 41.86C348.295 40.8633 349.075 39.4983 350.159 37.765C350.462 37.2883 350.635 36.92 350.679 36.66C350.765 36.4 350.809 36.1833 350.809 36.01C350.809 35.49 350.57 35.23 350.094 35.23C349.704 35.23 349.119 35.4467 348.339 35.88C347.602 36.3133 346.67 37.0717 345.544 38.155C344.46 39.195 343.16 40.6683 341.644 42.575C340.17 44.4817 338.459 47.2983 336.509 51.025C336.205 51.5883 335.859 51.8917 335.469 51.935C335.122 51.9783 334.624 52.0217 333.974 52.065C333.54 52.1083 333.129 52.13 332.739 52.13C332.349 52.1733 332.024 52.3033 331.764 52.52Z" fill="#05921C"/>
</svg>
