<svg width="35" height="37" viewBox="0 0 35 37" fill="none" xmlns="http://www.w3.org/2000/svg">
<path d="M32.4875 0.95166H2.51253C1.40104 0.95166 0.5 1.88177 0.5 3.02912V33.971C0.5 35.1183 1.40104 36.0484 2.51253 36.0484H32.4875C33.599 36.0484 34.5 35.1183 34.5 33.971V3.02912C34.5 1.88177 33.599 0.95166 32.4875 0.95166Z" fill="url(#paint0_linear_1969_23)"/>
<path fill-rule="evenodd" clip-rule="evenodd" d="M17.8311 13.2941C17.618 13.3918 17.4286 13.7829 17.9258 13.9784C18.2573 14.1006 18.4704 14.1984 18.7072 14.3939C19.3701 14.956 19.2517 15.8848 19.7726 15.7381C20.3646 15.5426 19.5359 14.3206 19.3701 14.1251C19.0387 13.734 18.1626 13.1719 17.8311 13.2941ZM17.7127 11.8521C17.4049 11.9498 17.4049 12.3164 17.6417 12.4631C17.7364 12.512 18.2573 12.6097 18.4467 12.6586C18.9913 12.8541 19.3701 13.123 19.7253 13.4163C20.0094 13.6607 20.3882 14.1495 20.554 14.6139C20.9091 15.4937 20.7434 16.1047 21.2643 15.9337C21.8562 15.7626 21.2169 13.2696 19.2517 12.2676C18.9913 12.1454 18.0205 11.7299 17.7127 11.8521ZM16.813 10.63C16.671 11.2899 17.2155 11.1189 17.7127 11.1677C20.1278 11.2899 22.093 13.1963 22.164 15.7626C22.164 15.9337 22.1166 16.3492 22.164 16.4958C22.235 16.6424 22.4718 16.7646 22.6612 16.618C23.0637 16.3247 22.6375 14.4183 22.4955 14.0028C21.7141 11.7787 19.5832 10.3612 17.0261 10.4834C17.0024 10.4834 16.9314 10.5323 16.9077 10.5323C16.8367 10.6056 16.8367 10.6056 16.813 10.63ZM20.3882 17.8156C19.9147 17.6934 19.891 17.8645 19.6779 18.1578C19.5122 18.3533 19.3228 18.5244 19.157 18.7443C18.6835 19.3309 18.5178 19.2576 17.7127 18.7688C16.6946 18.1578 16.008 17.5467 15.3687 16.6424C15.2267 16.4469 15.0846 16.2269 14.9426 15.9825C14.8005 15.7626 14.5874 15.4937 14.7531 15.176C14.9189 14.8094 15.6292 14.2717 15.6292 13.8562C15.6292 13.6851 15.1556 12.4386 15.0609 12.1698C14.6821 11.0944 14.8005 11.2166 14.1849 10.9233C14.1139 10.8744 14.1612 10.8989 14.1139 10.8744C13.593 11.0211 13.4509 10.7034 12.7643 11.4121C11.5804 12.6831 11.7462 14.3206 12.4802 15.7626C12.6932 16.1781 12.93 16.5936 13.1905 16.9602C14.5637 19.1109 15.9607 20.3819 18.3283 21.3595C19.3465 21.775 20.2698 22.0927 21.3827 21.5795C21.7852 21.3839 22.235 21.0418 22.4481 20.7485C22.6139 20.5041 22.9453 19.5509 22.7796 19.2087C22.7086 18.9887 21.8562 18.5977 21.6194 18.4755L20.3882 17.8156Z" fill="#FEFEFE"/>
<path fill-rule="evenodd" clip-rule="evenodd" d="M27.6577 8.47952L27.6814 8.50396L28.297 9.48158L28.3207 9.50602C28.9599 10.6303 29.3861 12.0723 29.4572 13.3676C29.5282 14.2964 29.5045 15.274 29.5045 16.2028C29.5045 16.8382 29.5045 17.4492 29.5045 18.0847C29.4808 18.4024 29.5045 18.7446 29.4335 19.0868C29.4572 20.1133 28.9599 21.6775 28.5338 22.484C28.0839 23.3883 27.5157 24.2437 26.8053 24.9281C23.8221 27.8365 21.3833 27.5188 17.6187 27.5188C17.3346 27.5188 16.9794 27.4943 16.648 27.4943L14.9432 29.4496L14.9196 29.474C14.7775 29.6207 14.6591 29.7918 14.517 29.9384C14.0198 30.4517 13.5936 31.0382 13.0964 31.5759C12.6466 32.0647 12.0073 32.2603 11.368 32.0403C10.1842 31.5759 10.2789 30.305 10.3262 29.3029C10.3499 28.4231 10.4209 27.4699 10.4209 26.5656C7.55604 25.0992 5.66189 22.1418 5.51983 18.7935C5.47248 17.8158 5.49615 16.8138 5.49615 15.8362C5.49615 15.2251 5.49615 14.6141 5.51983 14.0031C5.54351 13.5632 5.54351 13.0744 5.61454 12.6589C5.89866 10.8014 6.63264 9.33494 7.81649 7.91738C8.88195 6.62203 10.563 5.61996 12.1257 5.20447C13.9251 4.71566 16.1271 4.91118 17.9975 4.91118C19.9391 4.91118 21.9042 4.7401 23.7747 5.49776C25.0533 6.01101 26.4502 6.9642 27.3262 8.06402C27.4446 8.21067 27.563 8.33287 27.6577 8.47952ZM23.2538 6.86643C24.3193 7.28192 25.5268 8.11291 26.2371 8.99277C26.3081 9.09053 26.4975 9.26162 26.5212 9.40826C26.5686 9.4327 26.5449 9.40826 26.5923 9.45714L27.1131 10.2392C27.6104 11.1435 27.9892 12.3656 28.0602 13.4654C28.0839 14.052 28.1313 18.7935 28.0129 18.989C28.1313 19.6489 27.5157 21.3353 27.2789 21.8241C26.8527 22.6551 26.3792 23.3394 25.8346 23.8527C23.2065 26.419 21.0045 26.0523 17.6187 26.0523C17.3109 26.0523 16.1034 26.0035 15.9613 26.1012L13.9251 28.4475C13.7594 28.5942 13.6884 28.7164 13.4989 28.9119C13.0491 29.3763 12.5282 30.0606 12.0783 30.5494C11.5811 31.0871 11.7469 29.5718 11.7469 29.3274C11.7705 28.3253 11.8652 26.419 11.8179 25.6124C9.33181 24.6592 7.0825 22.1663 6.94044 18.7446C6.89309 17.7181 6.89309 13.7343 7.01147 12.8788C7.2956 11.1191 8.0059 9.89707 8.88195 8.87057C9.59225 7.9907 10.9655 7.01308 12.4808 6.62203C13.9962 6.20654 16.3165 6.37762 17.9975 6.37762C19.8207 6.37762 21.6438 6.20654 23.2538 6.86643Z" fill="#FEFEFE"/>
<defs>
<linearGradient id="paint0_linear_1969_23" x1="9.15314" y1="33.7887" x2="26.6659" y2="3.68858" gradientUnits="userSpaceOnUse">
<stop stop-color="#7E71B1"/>
<stop offset="0.658824" stop-color="#B171D8"/>
<stop offset="1" stop-color="#E570FF"/>
</linearGradient>
</defs>
</svg>
